<?xml version="1.0" encoding="UTF-8" standalone="no"?>
<!DOCTYPE svg PUBLIC "-//W3C//DTD SVG 1.1//EN" "http://www.w3.org/Graphics/SVG/1.1/DTD/svg11.dtd">
<!-- Generated by Microsoft Visio, SVG Export physical attacks.svg Page-1 -->
<svg xmlns="http://www.w3.org/2000/svg" xmlns:xlink="http://www.w3.org/1999/xlink" xmlns:ev="http://www.w3.org/2001/xml-events"
		xmlns:v="http://schemas.microsoft.com/visio/2003/SVGExtensions/" width="5.18654in" height="1.7786in"
		viewBox="0 0 373.431 128.059" xml:space="preserve" color-interpolation-filters="sRGB" class="st12">
	<v:documentProperties v:langID="1033" v:metric="true" v:viewMarkup="false"/>

	<style type="text/css">
	<![CDATA[
		.st1 {fill:none;stroke:none;stroke-linecap:round;stroke-linejoin:round;stroke-width:0.5}
		.st2 {fill:#000000;font-family:Calibri;font-size:0.833336em}
		.st3 {marker-end:url(#mrkr13-9);stroke:#000000;stroke-linecap:round;stroke-linejoin:round;stroke-width:0.5}
		.st4 {fill:#000000;fill-opacity:1;stroke:#000000;stroke-opacity:1;stroke-width:0.16556291390728}
		.st5 {fill:#000000;font-family:Calibri;font-size:0.666664em}
		.st6 {stroke:#000000;stroke-linecap:round;stroke-linejoin:round;stroke-width:0.5}
		.st7 {font-size:1em}
		.st8 {stroke:#5692c9;stroke-dasharray:3.5,2.5;stroke-linecap:round;stroke-linejoin:round;stroke-width:0.5}
		.st9 {stroke:#5692c9;stroke-linecap:round;stroke-linejoin:round;stroke-width:0.5}
		.st10 {marker-end:url(#mrkr13-69);stroke:#5692c9;stroke-linecap:round;stroke-linejoin:round;stroke-width:0.5}
		.st11 {fill:#5692c9;fill-opacity:1;stroke:#5692c9;stroke-opacity:1;stroke-width:0.16556291390728}
		.st12 {fill:none;fill-rule:evenodd;font-size:12px;overflow:visible;stroke-linecap:square;stroke-miterlimit:3}
	]]>
	</style>

	<defs id="Markers">
		<g id="lend13">
			<path d="M 3 1 L 0 0 L 3 -1 L 3 1 " style="stroke:none"/>
		</g>
		<marker id="mrkr13-9" class="st4" v:arrowType="13" v:arrowSize="2" v:setback="18.12" refX="-18.12" orient="auto"
				markerUnits="strokeWidth" overflow="visible">
			<use xlink:href="#lend13" transform="scale(-6.04,-6.04) "/>
		</marker>
		<marker id="mrkr13-69" class="st11" v:arrowType="13" v:arrowSize="2" v:setback="18.12" refX="-18.12" orient="auto"
				markerUnits="strokeWidth" overflow="visible">
			<use xlink:href="#lend13" transform="scale(-6.04,-6.04) "/>
		</marker>
	</defs>
	<g v:mID="0" v:index="1" v:groupContext="foregroundPage">
		<title>Page-1</title>
		<v:pageProperties v:drawingScale="0.0393701" v:pageScale="0.0393701" v:drawingUnits="24" v:shadowOffsetX="8.50394"
				v:shadowOffsetY="-8.50394"/>
		<g id="shape1-1" v:mID="1" v:groupContext="shape" transform="translate(9.55008,-113.636)">
			<title>Sheet.1</title>
			<desc>Voltage glitch</desc>
			<v:textBlock v:margins="rect(4,4,4,4)" v:tabSpace="42.5197"/>
			<v:textRect cx="70.8661" cy="120.972" width="141.74" height="14.1732"/>
			<rect x="0" y="113.886" width="141.732" height="14.1732" class="st1"/>
			<text x="43.14" y="123.97" class="st2" v:langID="2057"><v:paragraph v:horizAlign="1"/><v:tabList/>Voltage glitch</text>		</g>
		<g id="shape2-4" v:mID="2" v:groupContext="shape" transform="translate(9.55008,-14.4232)">
			<title>Sheet.2</title>
			<path d="M0 128.06 L132.67 128.06" class="st3"/>
		</g>
		<g id="shape3-10" v:mID="3" v:groupContext="shape" transform="translate(105.928,-0.25)">
			<title>Sheet.3</title>
			<desc>Time</desc>
			<v:textBlock v:margins="rect(4,4,4,4)" v:tabSpace="42.5197"/>
			<v:textRect cx="22.6772" cy="120.972" width="45.36" height="14.1732"/>
			<rect x="0" y="113.886" width="45.3543" height="14.1732" class="st1"/>
			<text x="14.62" y="123.37" class="st5" v:langID="2057"><v:paragraph v:horizAlign="1"/><v:tabList/>Time</text>		</g>
		<g id="shape4-13" v:mID="4" v:groupContext="shape" transform="translate(9.55008,-85.2894)">
			<title>Sheet.4</title>
			<path d="M0 128.06 L0 113.89 L6.7 113.89 L6.7 128.06 L14.17 128.06" class="st6"/>
		</g>
		<g id="shape5-16" v:mID="5" v:groupContext="shape" transform="translate(23.7233,-85.2894)">
			<title>Sheet.5</title>
			<path d="M0 128.06 L0 113.89 L6.7 113.89 L6.7 128.06 L14.17 128.06" class="st6"/>
		</g>
		<g id="shape6-19" v:mID="6" v:groupContext="shape" transform="translate(37.8965,-85.2894)">
			<title>Sheet.6</title>
			<path d="M0 128.06 L0 113.89 L6.7 113.89 L6.7 128.06 L14.17 128.06" class="st6"/>
		</g>
		<g id="shape7-22" v:mID="7" v:groupContext="shape" transform="translate(52.0698,-85.2894)">
			<title>Sheet.7</title>
			<path d="M0 128.06 L0 113.89 L6.7 113.89 L6.7 128.06 L14.17 128.06" class="st6"/>
		</g>
		<g id="shape8-25" v:mID="8" v:groupContext="shape" transform="translate(66.243,-85.2894)">
			<title>Sheet.8</title>
			<path d="M0 128.06 L0 113.89 L6.7 113.89 L6.7 128.06 L14.17 128.06" class="st6"/>
		</g>
		<g id="shape9-28" v:mID="9" v:groupContext="shape" transform="translate(80.4162,-85.2894)">
			<title>Sheet.9</title>
			<path d="M0 128.06 L0 113.89 L6.7 113.89 L6.7 128.06 L14.17 128.06" class="st6"/>
		</g>
		<g id="shape10-31" v:mID="10" v:groupContext="shape" transform="translate(94.5894,-85.2894)">
			<title>Sheet.10</title>
			<path d="M0 128.06 L0 113.89 L6.7 113.89 L6.7 128.06 L14.17 128.06" class="st6"/>
		</g>
		<g id="shape11-34" v:mID="11" v:groupContext="shape" transform="translate(108.763,-85.2894)">
			<title>Sheet.11</title>
			<path d="M0 128.06 L0 113.89 L6.7 113.89 L6.7 128.06 L14.17 128.06" class="st6"/>
		</g>
		<g id="shape12-37" v:mID="12" v:groupContext="shape" transform="translate(122.936,-85.2894)">
			<title>Sheet.12</title>
			<path d="M0 128.06 L0 113.89 L6.7 113.89 L6.7 128.06 L14.17 128.06" class="st6"/>
		</g>
		<g id="shape13-40" v:mID="13" v:groupContext="shape" transform="translate(137.109,-85.2894)">
			<title>Sheet.13</title>
			<path d="M0 128.06 L0 113.89 L6.7 113.89 L6.7 128.06 L14.17 128.06" class="st6"/>
		</g>
		<g id="shape15-43" v:mID="15" v:groupContext="shape" transform="translate(9.55008,-56.9429)">
			<title>Sheet.15</title>
			<desc>Supply voltage</desc>
			<v:textBlock v:margins="rect(4,4,4,4)" v:tabSpace="42.5197"/>
			<v:textRect cx="21.2598" cy="120.972" width="42.52" height="14.1732"/>
			<rect x="0" y="113.886" width="42.5197" height="14.1732" class="st1"/>
			<text x="7.67" y="117.97" class="st2" v:langID="2057"><v:paragraph v:horizAlign="1"/><v:tabList/>Supply <tspan x="6.31"
						dy="1.2em" class="st7">voltage</tspan></text>		</g>
		<g id="shape16-47" v:mID="16" v:groupContext="shape" transform="translate(9.55008,-42.7697)">
			<title>Sheet.16</title>
			<path d="M0 128.06 L141.73 128.06" class="st8"/>
		</g>
		<g id="shape17-50" v:mID="17" v:groupContext="shape" transform="translate(151.282,-35.6831)">
			<title>Sheet.17</title>
			<desc>Minimum voltage for the device</desc>
			<v:textBlock v:margins="rect(4,4,4,4)" v:tabSpace="42.5197"/>
			<v:textRect cx="28.3465" cy="120.972" width="56.7" height="14.1732"/>
			<rect x="0" y="113.886" width="56.6929" height="14.1732" class="st1"/>
			<text x="8.53" y="111.97" class="st2" v:langID="2057"><v:paragraph v:horizAlign="1"/><v:tabList/>Minimum <tspan
						x="6.36" dy="1.2em" class="st7">voltage for </tspan><tspan x="7.3" dy="1.2em" class="st7">the device</tspan></text>		</g>
		<g id="shape18-55" v:mID="18" v:groupContext="shape" transform="translate(9.55008,-48.439)">
			<title>Sheet.18</title>
			<path d="M0 128.06 L51.02 128.06" class="st9"/>
		</g>
		<g id="shape19-58" v:mID="19" v:groupContext="shape" transform="translate(74.7469,-48.439)">
			<title>Sheet.19</title>
			<path d="M0 128.06 L76.54 128.06" class="st9"/>
		</g>
		<g id="shape20-61" v:mID="20" v:groupContext="shape" transform="translate(60.5737,-31.4311)">
			<title>Sheet.20</title>
			<path d="M0 111.05 C1.81 109.7 1.82 113.23 2.15 115.85 C2.41 117.93 2.88 119.44 3.09 121.52 C3.2 122.56 3.24 123.74 3.44
						 124.57 C3.62 125.33 3.93 125.79 4.29 126.31 C4.84 127.09 5.5 128 6.01 128.06 C7.38 128.22 7.66 122.3 8.25
						 118.03 C8.6 115.45 9.07 113.48 10.09 112.8 C11.33 111.97 13.39 113.02 14.17 111.05" class="st9"/>
		</g>
		<g id="shape21-64" v:mID="21" v:groupContext="shape" transform="translate(194.956,114.213) rotate(116.565)">
			<title>Sheet.21</title>
			<path d="M0 128.06 L22.63 128.06" class="st10"/>
		</g>
		<g id="shape22-70" v:mID="22" v:groupContext="shape" transform="translate(74.4892,-64.0295)">
			<title>Sheet.22</title>
			<desc>Point of attack</desc>
			<v:textBlock v:margins="rect(4,4,4,4)" v:tabSpace="42.5197"/>
			<v:textRect cx="39.8139" cy="120.972" width="79.63" height="14.1732"/>
			<rect x="0" y="113.886" width="79.6278" height="14.1732" class="st1"/>
			<text x="10.19" y="123.97" class="st2" v:langID="2057"><v:paragraph v:horizAlign="1"/><v:tabList/>Point of attack</text>		</g>
		<g id="shape23-73" v:mID="23" v:groupContext="shape" transform="translate(151.282,213.348) rotate(180)">
			<title>Sheet.23</title>
			<path d="M0 128.06 L8.2 128.06" class="st10"/>
		</g>
		<g id="shape24-78" v:mID="24" v:groupContext="shape" transform="translate(166.452,13.0078) rotate(66.2535)">
			<title>Sheet.24</title>
			<path d="M0 128.06 L7.38 128.06" class="st10"/>
		</g>
		<g id="shape25-83" v:mID="25" v:groupContext="shape" transform="translate(222.149,-113.636)">
			<title>Sheet.25</title>
			<desc>Clock glitch</desc>
			<v:textBlock v:margins="rect(4,4,4,4)" v:tabSpace="42.5197"/>
			<v:textRect cx="70.8661" cy="120.972" width="141.74" height="14.1732"/>
			<rect x="0" y="113.886" width="141.732" height="14.1732" class="st1"/>
			<text x="47.83" y="123.97" class="st2" v:langID="2057"><v:paragraph v:horizAlign="1"/><v:tabList/>Clock glitch</text>		</g>
		<g id="shape26-86" v:mID="26" v:groupContext="shape" transform="translate(222.149,-14.4232)">
			<title>Sheet.26</title>
			<path d="M0 128.06 L132.67 128.06" class="st3"/>
		</g>
		<g id="shape27-91" v:mID="27" v:groupContext="shape" transform="translate(318.526,-0.25)">
			<title>Sheet.27</title>
			<desc>Time</desc>
			<v:textBlock v:margins="rect(4,4,4,4)" v:tabSpace="42.5197"/>
			<v:textRect cx="22.6772" cy="120.972" width="45.36" height="14.1732"/>
			<rect x="0" y="113.886" width="45.3543" height="14.1732" class="st1"/>
			<text x="14.62" y="123.37" class="st5" v:langID="2057"><v:paragraph v:horizAlign="1"/><v:tabList/>Time</text>		</g>
		<g id="shape28-94" v:mID="28" v:groupContext="shape" transform="translate(222.149,-99.4626)">
			<title>Sheet.28</title>
			<desc>(Type 1: clock width)</desc>
			<v:textBlock v:margins="rect(4,4,4,4)" v:tabSpace="42.5197"/>
			<v:textRect cx="70.8661" cy="120.972" width="141.74" height="14.1732"/>
			<rect x="0" y="113.886" width="141.732" height="14.1732" class="st1"/>
			<text x="28.82" y="123.97" class="st2" v:langID="2057"><v:paragraph v:horizAlign="1"/><v:tabList/>(Type 1: clock width)</text>		</g>
		<g id="shape29-97" v:mID="29" v:groupContext="shape" transform="translate(222.149,-71.1161)">
			<title>Sheet.29</title>
			<path d="M0 128.06 L0 113.89 L6.7 113.89 L6.7 128.06 L14.17 128.06" class="st6"/>
		</g>
		<g id="shape30-100" v:mID="30" v:groupContext="shape" transform="translate(236.322,-71.1161)">
			<title>Sheet.30</title>
			<path d="M0 128.06 L0 113.89 L6.7 113.89 L6.7 128.06 L14.17 128.06" class="st6"/>
		</g>
		<g id="shape31-103" v:mID="31" v:groupContext="shape" transform="translate(250.495,-71.1161)">
			<title>Sheet.31</title>
			<path d="M0 128.06 L0 113.89 L6.7 113.89 L6.7 128.06 L14.17 128.06" class="st6"/>
		</g>
		<g id="shape32-106" v:mID="32" v:groupContext="shape" transform="translate(264.668,-71.1161)">
			<title>Sheet.32</title>
			<path d="M0 128.06 L0 113.89 L6.7 113.89 L6.7 128.06 L14.17 128.06" class="st6"/>
		</g>
		<g id="shape33-109" v:mID="33" v:groupContext="shape" transform="translate(278.841,-71.1161)">
			<title>Sheet.33</title>
			<path d="M0 128.06 L0 113.89 L1.34 113.89 L1.34 128.06 L2.83 128.06" class="st6"/>
		</g>
		<g id="shape34-112" v:mID="34" v:groupContext="shape" transform="translate(293.015,-71.1161)">
			<title>Sheet.34</title>
			<path d="M0 128.06 L0 113.89 L6.7 113.89 L6.7 128.06 L14.17 128.06" class="st6"/>
		</g>
		<g id="shape35-115" v:mID="35" v:groupContext="shape" transform="translate(307.188,-71.1161)">
			<title>Sheet.35</title>
			<path d="M0 128.06 L0 113.89 L6.7 113.89 L6.7 128.06 L14.17 128.06" class="st6"/>
		</g>
		<g id="shape36-118" v:mID="36" v:groupContext="shape" transform="translate(321.361,-71.1161)">
			<title>Sheet.36</title>
			<path d="M0 128.06 L0 113.89 L6.7 113.89 L6.7 128.06 L14.17 128.06" class="st6"/>
		</g>
		<g id="shape37-121" v:mID="37" v:groupContext="shape" transform="translate(335.534,-71.1161)">
			<title>Sheet.37</title>
			<path d="M0 128.06 L0 113.89 L6.7 113.89 L6.7 128.06 L14.17 128.06" class="st6"/>
		</g>
		<g id="shape38-124" v:mID="38" v:groupContext="shape" transform="translate(349.708,-71.1161)">
			<title>Sheet.38</title>
			<path d="M0 128.06 L0 113.89 L6.7 113.89 L6.7 128.06 L14.17 128.06" class="st6"/>
		</g>
		<g id="shape39-127" v:mID="39" v:groupContext="shape" transform="translate(281.109,-71.1161)">
			<title>Sheet.39</title>
			<path d="M0 128.06 L11.91 128.06" class="st6"/>
		</g>
		<g id="shape40-130" v:mID="40" v:groupContext="shape" transform="translate(222.149,-49.8563)">
			<title>Sheet.40</title>
			<desc>(Type 2: clock interval)</desc>
			<v:textBlock v:margins="rect(4,4,4,4)" v:tabSpace="42.5197"/>
			<v:textRect cx="70.8661" cy="120.972" width="141.74" height="14.1732"/>
			<rect x="0" y="113.886" width="141.732" height="14.1732" class="st1"/>
			<text x="24.99" y="123.97" class="st2" v:langID="2057"><v:paragraph v:horizAlign="1"/><v:tabList/>(Type 2: clock interval)</text>		</g>
		<g id="shape41-133" v:mID="41" v:groupContext="shape" transform="translate(222.149,-28.5965)">
			<title>Sheet.41</title>
			<path d="M0 128.06 L0 113.89 L6.7 113.89 L6.7 128.06 L14.17 128.06" class="st6"/>
		</g>
		<g id="shape42-136" v:mID="42" v:groupContext="shape" transform="translate(236.322,-28.5965)">
			<title>Sheet.42</title>
			<path d="M0 128.06 L0 113.89 L6.7 113.89 L6.7 128.06 L14.17 128.06" class="st6"/>
		</g>
		<g id="shape43-139" v:mID="43" v:groupContext="shape" transform="translate(250.495,-28.5965)">
			<title>Sheet.43</title>
			<path d="M0 128.06 L0 113.89 L6.7 113.89 L6.7 128.06 L14.17 128.06" class="st6"/>
		</g>
		<g id="shape44-142" v:mID="44" v:groupContext="shape" transform="translate(264.668,-28.5965)">
			<title>Sheet.44</title>
			<path d="M0 128.06 L0 113.89 L6.7 113.89 L6.7 128.06 L14.17 128.06" class="st6"/>
		</g>
		<g id="shape46-145" v:mID="46" v:groupContext="shape" transform="translate(300.101,-28.5965)">
			<title>Sheet.46</title>
			<path d="M0 128.06 L0 113.89 L6.7 113.89 L6.7 128.06 L14.17 128.06" class="st6"/>
		</g>
		<g id="shape47-148" v:mID="47" v:groupContext="shape" transform="translate(314.274,-28.5965)">
			<title>Sheet.47</title>
			<path d="M0 128.06 L0 113.89 L6.7 113.89 L6.7 128.06 L14.17 128.06" class="st6"/>
		</g>
		<g id="shape48-151" v:mID="48" v:groupContext="shape" transform="translate(328.448,-28.5965)">
			<title>Sheet.48</title>
			<path d="M0 128.06 L0 113.89 L6.7 113.89 L6.7 128.06 L14.17 128.06" class="st6"/>
		</g>
		<g id="shape49-154" v:mID="49" v:groupContext="shape" transform="translate(342.621,-28.5965)">
			<title>Sheet.49</title>
			<path d="M0 128.06 L0 113.89 L6.7 113.89 L6.7 128.06 L14.17 128.06" class="st6"/>
		</g>
		<g id="shape50-157" v:mID="50" v:groupContext="shape" transform="translate(356.794,-28.5965)">
			<title>Sheet.50</title>
			<path d="M0 128.06 L0 113.89 L6.7 113.89 L6.7 128.06 L14.17 128.06" class="st6"/>
		</g>
		<g id="shape52-160" v:mID="52" v:groupContext="shape" transform="translate(278.841,-28.5965)">
			<title>Sheet.52</title>
			<path d="M0 128.06 L0 113.89 L2.14 113.89 L2.14 128.06 L4.54 128.06" class="st6"/>
		</g>
		<g id="shape53-163" v:mID="53" v:groupContext="shape" transform="translate(283.66,-28.5965)">
			<title>Sheet.53</title>
			<path d="M0 128.06 L0 113.89 L2.14 113.89 L2.14 128.06 L4.54 128.06" class="st6"/>
		</g>
		<g id="shape54-166" v:mID="54" v:groupContext="shape" transform="translate(288.196,-28.5965)">
			<title>Sheet.54</title>
			<path d="M0 128.06 L11.91 128.06" class="st6"/>
		</g>
		<g id="shape55-169" v:mID="55" v:groupContext="shape" transform="translate(397.816,96.0554) rotate(121.788)">
			<title>Sheet.55</title>
			<path d="M0 128.06 L7.61 128.06" class="st10"/>
		</g>
		<g id="shape57-174" v:mID="57" v:groupContext="shape" transform="translate(264.75,-47.9632)">
			<title>Sheet.57</title>
			<path d="M0 128.06 L5.03 128.06" class="st10"/>
		</g>
		<g id="shape58-179" v:mID="58" v:groupContext="shape" transform="translate(294.533,208.499) rotate(180)">
			<title>Sheet.58</title>
			<path d="M0 128.06 L2.11 128.06" class="st10"/>
		</g>
		<g id="shape59-184" v:mID="59" v:groupContext="shape" transform="translate(406.9,78.2027) rotate(90)">
			<title>Sheet.59</title>
			<path d="M0 128.06 L4.82 128.06" class="st9"/>
		</g>
		<g id="shape61-187" v:mID="61" v:groupContext="shape" transform="translate(411.709,78.2027) rotate(90)">
			<title>Sheet.61</title>
			<path d="M0 128.06 L4.82 128.06" class="st9"/>
		</g>
	</g>
</svg>
