<?xml version="1.0" encoding="UTF-8" standalone="no"?>
<!DOCTYPE svg PUBLIC "-//W3C//DTD SVG 1.1//EN" "http://www.w3.org/Graphics/SVG/1.1/DTD/svg11.dtd">
<!-- Generated by Microsoft Visio, SVG Export side_channel_leakage_figure_1_branch.svg Page-1 -->
<svg xmlns="http://www.w3.org/2000/svg" xmlns:xlink="http://www.w3.org/1999/xlink" xmlns:ev="http://www.w3.org/2001/xml-events"
		xmlns:v="http://schemas.microsoft.com/visio/2003/SVGExtensions/" width="7.177in" height="3.43685in"
		viewBox="0 0 516.744 247.453" xml:space="preserve" color-interpolation-filters="sRGB" class="st16">
	<v:documentProperties v:langID="1033" v:metric="true" v:viewMarkup="false"/>

	<style type="text/css">
	<![CDATA[
		.st1 {fill:#fff2cc;stroke:none;stroke-linecap:round;stroke-linejoin:round;stroke-width:0.75}
		.st2 {fill:#e5b9b5;stroke:none;stroke-linecap:round;stroke-linejoin:round;stroke-width:0.75}
		.st3 {fill:#fbd7bb;stroke:none;stroke-linecap:round;stroke-linejoin:round;stroke-width:0.75}
		.st4 {fill:#ddd6e5;stroke:none;stroke-linecap:round;stroke-linejoin:round;stroke-width:0.75}
		.st5 {fill:#ddd6e5;stroke:#000000;stroke-linecap:round;stroke-linejoin:round;stroke-width:0.75}
		.st6 {fill:#000000;font-family:Calibri;font-size:1.00001em}
		.st7 {marker-end:url(#mrkr13-21);stroke:#000000;stroke-linecap:round;stroke-linejoin:round;stroke-width:0.75}
		.st8 {fill:#000000;fill-opacity:1;stroke:#000000;stroke-opacity:1;stroke-width:0.22935779816514}
		.st9 {fill:#ffffff;stroke:#000000;stroke-linecap:round;stroke-linejoin:round;stroke-width:0.75}
		.st10 {fill:#ffffff;stroke:none;stroke-linecap:butt;stroke-width:7.2}
		.st11 {font-size:1em}
		.st12 {fill:#fff2cc;stroke:#000000;stroke-linecap:round;stroke-linejoin:round;stroke-width:0.75}
		.st13 {fill:#e5b9b5;stroke:#000000;stroke-linecap:round;stroke-linejoin:round;stroke-width:0.75}
		.st14 {stroke:#000000;stroke-linecap:round;stroke-linejoin:round;stroke-width:0.75}
		.st15 {fill:none;stroke:none;stroke-linecap:round;stroke-linejoin:round;stroke-width:0.75}
		.st16 {fill:none;fill-rule:evenodd;font-size:12px;overflow:visible;stroke-linecap:square;stroke-miterlimit:3}
	]]>
	</style>

	<defs id="Markers">
		<g id="lend13">
			<path d="M 3 1 L 0 0 L 3 -1 L 3 1 " style="stroke:none"/>
		</g>
		<marker id="mrkr13-21" class="st8" v:arrowType="13" v:arrowSize="2" v:setback="13.08" refX="-13.08" orient="auto"
				markerUnits="strokeWidth" overflow="visible">
			<use xlink:href="#lend13" transform="scale(-4.36,-4.36) "/>
		</marker>
	</defs>
	<g v:mID="0" v:index="1" v:groupContext="foregroundPage">
		<title>Page-1</title>
		<v:pageProperties v:drawingScale="0.0393701" v:pageScale="0.0393701" v:drawingUnits="24" v:shadowOffsetX="8.50394"
				v:shadowOffsetY="-8.50394"/>
		<g id="shape26-1" v:mID="26" v:groupContext="shape" transform="translate(393.018,-86.8761)">
			<title>Sheet.26</title>
			<rect x="0" y="177.721" width="70.8661" height="69.7323" class="st1"/>
		</g>
		<g id="shape25-3" v:mID="25" v:groupContext="shape" transform="translate(463.884,-88.5769)">
			<title>Sheet.25</title>
			<rect x="0" y="177.721" width="42.5197" height="69.7323" class="st2"/>
		</g>
		<g id="shape24-5" v:mID="24" v:groupContext="shape" transform="translate(81.2068,-86.8761)">
			<title>Sheet.24</title>
			<rect x="0" y="177.721" width="42.5197" height="69.7323" class="st2"/>
		</g>
		<g id="shape23-7" v:mID="23" v:groupContext="shape" transform="translate(67.0336,-86.8761)">
			<title>Sheet.23</title>
			<rect x="0" y="177.721" width="14.1732" height="69.7323" class="st3"/>
		</g>
		<g id="shape22-9" v:mID="22" v:groupContext="shape" transform="translate(336.325,-86.8761)">
			<title>Sheet.22</title>
			<rect x="0" y="177.721" width="56.6929" height="69.7323" class="st4"/>
		</g>
		<g id="shape21-11" v:mID="21" v:groupContext="shape" transform="translate(10.3406,-86.8761)">
			<title>Sheet.21</title>
			<rect x="0" y="177.721" width="56.6929" height="69.7323" class="st4"/>
		</g>
		<g id="shape1-13" v:mID="1" v:groupContext="shape" transform="translate(180.419,-180.419)">
			<title>Sheet.1</title>
			<desc>Process A</desc>
			<v:textBlock v:margins="rect(4,4,4,4)" v:tabSpace="42.5197"/>
			<v:textRect cx="28.3465" cy="233.28" width="56.7" height="28.3465"/>
			<rect x="0" y="219.106" width="56.6929" height="28.3465" class="st5"/>
			<text x="4.95" y="236.88" class="st6" v:langID="2057"><v:paragraph v:horizAlign="1"/><v:tabList/>Process A</text>		</g>
		<g id="shape2-16" v:mID="2" v:groupContext="shape" transform="translate(456.219,10.3406) rotate(90)">
			<title>Sheet.2</title>
			<path d="M0 247.45 L18.54 247.45" class="st7"/>
		</g>
		<g id="shape3-22" v:mID="3" v:groupContext="shape" transform="translate(456.219,67.0336) rotate(90)">
			<title>Sheet.3</title>
			<path d="M0 247.45 L18.54 247.45" class="st7"/>
		</g>
		<g id="shape4-27" v:mID="4" v:groupContext="shape" transform="translate(166.246,-95.38)">
			<title>Sheet.4</title>
			<desc>Cond. branch</desc>
			<v:textBlock v:margins="rect(4,4,4,4)" v:tabSpace="42.5197"/>
			<v:textRect cx="42.5197" cy="219.106" width="85.04" height="56.6929"/>
			<path d="M42.52 190.76 L0 219.11 L42.52 247.45 L85.04 219.11 L42.52 190.76 Z" class="st9"/>
			<rect v:rectContext="textBkgnd" x="25.5597" y="204.707" width="33.9203" height="28.8001" class="st10"/>
			<text x="28.34" y="215.51" class="st6" v:langID="2057"><v:paragraph v:horizAlign="1"/><v:tabList/>Cond. <v:newlineChar/><tspan
						x="25.56" dy="1.2em" class="st11">branch</tspan></text>		</g>
		<g id="shape5-32" v:mID="5" v:groupContext="shape" transform="translate(265.459,-67.0335)">
			<title>Sheet.5</title>
			<desc>Process B</desc>
			<v:textBlock v:margins="rect(4,4,4,4)" v:tabSpace="42.5197"/>
			<v:textRect cx="28.3465" cy="233.28" width="56.7" height="28.3465"/>
			<rect x="0" y="219.106" width="56.6929" height="28.3465" class="st12"/>
			<text x="5.15" y="236.88" class="st6" v:langID="2057"><v:paragraph v:horizAlign="1"/><v:tabList/>Process B</text>		</g>
		<g id="shape6-35" v:mID="6" v:groupContext="shape" transform="translate(541.258,123.726) rotate(90)">
			<title>Sheet.6</title>
			<path d="M0 247.45 L18.54 247.45" class="st7"/>
		</g>
		<g id="shape7-40" v:mID="7" v:groupContext="shape" transform="translate(180.419,-38.6871)">
			<title>Sheet.7</title>
			<desc>Process C</desc>
			<v:textBlock v:margins="rect(4,4,4,4)" v:tabSpace="42.5197"/>
			<v:textRect cx="28.3465" cy="233.28" width="56.7" height="28.3465"/>
			<rect x="0" y="219.106" width="56.6929" height="28.3465" class="st13"/>
			<text x="5.22" y="236.88" class="st6" v:langID="2057"><v:paragraph v:horizAlign="1"/><v:tabList/>Process C</text>		</g>
		<g id="shape8-43" v:mID="8" v:groupContext="shape" transform="translate(456.219,152.073) rotate(90)">
			<title>Sheet.8</title>
			<path d="M0 247.45 L18.54 247.45" class="st7"/>
		</g>
		<g id="shape9-48" v:mID="9" v:groupContext="shape" transform="translate(251.286,-123.726) rotate(2.80397E-05)">
			<title>Sheet.9</title>
			<path d="M0 247.45 L42.52 247.45" class="st14"/>
		</g>
		<g id="shape10-51" v:mID="10" v:groupContext="shape" transform="translate(265.459,413.699) rotate(180)">
			<title>Sheet.10</title>
			<path d="M0 247.45 L46.88 247.45" class="st7"/>
		</g>
		<g id="shape11-56" v:mID="11" v:groupContext="shape" transform="translate(456.219,208.766) rotate(90)">
			<title>Sheet.11</title>
			<path d="M0 247.45 L18.54 247.45" class="st7"/>
		</g>
		<g id="shape13-61" v:mID="13" v:groupContext="shape" transform="translate(10.3406,-100.002)">
			<title>Sheet.13</title>
			<path d="M0 223.73 C-1.53 219.24 1.67 206.52 3.52 203.89 C6.04 200.3 6.09 215.36 5.87 229.4 C5.74 237.41 5.52 245.09
						 5.86 246.97 C6.43 250.08 8.52 237.43 10.75 229.97 C13.48 220.86 16.41 219.48 17.59 232.23 C17.89 235.44
						 18.08 239.56 18.57 240.74 C19.51 242.96 21.54 234.77 23.07 227.98 C23.91 224.23 24.6 220.9 25.41 220.33
						 C26.93 219.26 28.9 227.62 30.3 232.24 C31.61 236.55 32.43 237.59 33.23 235.63 C34.42 232.75 35.58 223.34
						 38.12 214.66 C39.63 209.52 41.61 204.63 42.62 204.45 C44.33 204.16 43.19 217.49 44.96 226 C46.14 231.63
						 48.59 235.15 50.83 232.23 C53.52 228.73 55.9 215.92 56.69 223.73" class="st14"/>
		</g>
		<g id="shape14-64" v:mID="14" v:groupContext="shape" transform="translate(81.2068,-103.157)">
			<title>Sheet.14</title>
			<path d="M0 226.88 C0.36 224.05 1.46 212.48 3.12 209.87 C4.17 208.22 5.44 210.18 6.38 212.71 C8.4 218.16 8.9 226.29 8.79
						 236.8 C8.75 240.79 8.62 245.13 8.79 246.73 C9.17 250.33 11.07 240.01 11.06 229.72 C11.05 225.15 10.67 220.59
						 11.06 219.8 C11.78 218.33 15.17 230.04 16.3 230.29 C16.96 230.43 16.84 226.58 17.29 225.47 C17.84 224.12
						 19.22 226.74 20.55 226.32 C22.23 225.78 23.82 220.38 25.23 219.8 C27.42 218.89 29.16 229.77 31.46 233.12
						 C34.34 237.31 38.12 229.76 42.52 226.88" class="st14"/>
		</g>
		<g id="shape15-67" v:mID="15" v:groupContext="shape" transform="translate(67.0336,-118.057)">
			<title>Sheet.15</title>
			<path d="M0 241.78 C0.24 239.86 2.26 238.62 3.42 239.26 C4.47 239.84 4.83 241.93 5.31 244.16 C5.6 245.49 5.94 246.87
						 6.28 247.3 C7.04 248.23 7.86 244.7 8.94 242.31 C10.11 239.71 11.57 238.44 12.95 240.33 C13.46 241.05 13.96
						 242.2 14.17 241.78" class="st14"/>
		</g>
		<g id="shape16-70" v:mID="16" v:groupContext="shape" transform="translate(393.018,-115.306)">
			<title>Sheet.16</title>
			<path d="M0 240.17 C1.02 240.24 0.91 238.42 0.91 236.76 C0.94 230.64 2.61 226.78 3.96 227.41 C6 228.36 7.35 239.48 8.53
						 244.42 C9.6 248.85 10.52 248.3 11.58 244.42 C12.37 241.55 13.23 236.87 14.33 232.23 C14.88 229.88 15.5 227.55
						 16 227.41 C17.22 227.08 17.78 239.62 18.67 244.42 C20.01 251.63 22.1 241.36 24.39 234.49 C25.95 229.78 27.61
						 226.67 28.57 230.25 C29.33 233.04 29.67 239.9 30.48 243.57 C31.2 246.83 32.3 247.57 33.15 245.83 C34.41
						 243.25 35.1 235.15 36.96 231.66 C38.49 228.78 40.83 229.06 41.91 233.08 C42.73 236.11 42.83 241.27 43.82
						 243.57 C44.9 246.1 47.04 245.17 47.85 240.73 C48.44 237.51 48.33 232.42 48.77 230.25 C49.36 227.33 50.96
						 229.64 52.2 233.08 C53.85 237.66 54.86 244.24 55.47 243.57 C55.98 243.02 56.2 237.54 56.39 231.66 C56.62
						 224.43 56.8 216.58 57.3 211.82 C57.93 205.87 59.07 204.73 59.82 210.4 C60.37 214.61 60.72 222.56 60.96 229.39
						 C61.12 233.88 61.24 237.89 62.1 240.17 C62.98 242.47 64.62 243.01 65.53 240.73 C66.25 238.93 66.51 235.36
						 66.9 234.5 C67.64 232.89 68.88 240.67 70.87 240.17" class="st14"/>
		</g>
		<g id="shape17-73" v:mID="17" v:groupContext="shape" transform="translate(336.325,-98.8685)">
			<title>Sheet.17</title>
			<path d="M0 223.73 C-1.53 219.24 1.67 206.52 3.52 203.89 C6.04 200.3 6.09 215.36 5.87 229.4 C5.74 237.41 5.52 245.09
						 5.86 246.97 C6.43 250.08 8.52 237.43 10.75 229.97 C13.48 220.86 16.41 219.48 17.59 232.23 C17.89 235.44
						 18.08 239.56 18.57 240.74 C19.51 242.96 21.54 234.77 23.07 227.98 C23.91 224.23 24.6 220.9 25.41 220.33
						 C26.93 219.26 28.9 227.62 30.3 232.24 C31.61 236.55 32.43 237.59 33.23 235.63 C34.42 232.75 35.58 223.34
						 38.12 214.66 C39.63 209.52 41.61 204.63 42.62 204.45 C44.33 204.16 43.19 217.49 44.96 226 C46.14 231.63
						 48.59 235.15 50.83 232.23 C53.52 228.73 55.9 215.92 56.69 223.73" class="st14"/>
		</g>
		<g id="shape18-76" v:mID="18" v:groupContext="shape" transform="translate(463.884,-102.023)">
			<title>Sheet.18</title>
			<path d="M0 226.88 C0.36 224.05 1.46 212.48 3.12 209.87 C4.17 208.22 5.44 210.18 6.38 212.71 C8.4 218.16 8.9 226.29 8.79
						 236.8 C8.75 240.79 8.62 245.13 8.79 246.73 C9.17 250.33 11.07 240.01 11.06 229.72 C11.05 225.15 10.67 220.59
						 11.06 219.8 C11.78 218.33 15.17 230.04 16.3 230.29 C16.96 230.43 16.84 226.58 17.29 225.47 C17.84 224.12
						 19.22 226.74 20.55 226.32 C22.23 225.78 23.82 220.38 25.23 219.8 C27.42 218.89 29.16 229.77 31.46 233.12
						 C34.34 237.31 38.12 229.76 42.52 226.88" class="st14"/>
		</g>
		<g id="shape20-79" v:mID="20" v:groupContext="shape" transform="translate(10.3406,-180.419)">
			<title>Sheet.20</title>
			<desc>Power signature when the branch is not taken</desc>
			<v:textBlock v:margins="rect(4,4,4,4)" v:tabSpace="42.5197"/>
			<v:textRect cx="56.6929" cy="240.366" width="113.39" height="14.1732"/>
			<rect x="0" y="233.28" width="113.386" height="14.1732" class="st15"/>
			<text x="16.89" y="229.57" class="st6" v:langID="2057"><v:paragraph v:horizAlign="1"/><v:tabList/>Power signature <tspan
						x="10.21" dy="1.2em" class="st11">when the branch is </tspan><tspan x="33.26" dy="1.2em" class="st11">not taken</tspan></text>		</g>
		<g id="shape27-84" v:mID="27" v:groupContext="shape" transform="translate(378.845,-180.419)">
			<title>Sheet.27</title>
			<desc>Power signature when the branch is taken</desc>
			<v:textBlock v:margins="rect(4,4,4,4)" v:tabSpace="42.5197"/>
			<v:textRect cx="56.6929" cy="240.366" width="113.39" height="14.1732"/>
			<rect x="0" y="233.28" width="113.386" height="14.1732" class="st15"/>
			<text x="16.89" y="229.57" class="st6" v:langID="2057"><v:paragraph v:horizAlign="1"/><v:tabList/>Power signature <tspan
						x="10.21" dy="1.2em" class="st11">when the branch is  </tspan><tspan x="42.94" dy="1.2em" class="st11">taken</tspan></text>		</g>
		<g id="shape28-89" v:mID="28" v:groupContext="shape" transform="translate(10.3406,-81.2068)">
			<title>Sheet.28</title>
			<path d="M0 247.45 L103.58 247.45" class="st7"/>
		</g>
		<g id="shape29-94" v:mID="29" v:groupContext="shape" transform="translate(336.325,-81.2068)">
			<title>Sheet.29</title>
			<path d="M0 247.45 L160.27 247.45" class="st7"/>
		</g>
		<g id="shape30-99" v:mID="30" v:groupContext="shape" transform="translate(38.6871,-67.0336)">
			<title>Sheet.30</title>
			<desc>Time</desc>
			<v:textBlock v:margins="rect(4,4,4,4)" v:tabSpace="42.5197"/>
			<v:textRect cx="31.1811" cy="240.366" width="62.37" height="14.1732"/>
			<rect x="0" y="233.28" width="62.3622" height="14.1732" class="st15"/>
			<text x="19.1" y="243.97" class="st6" v:langID="2057"><v:paragraph v:horizAlign="1"/><v:tabList/>Time</text>		</g>
		<g id="shape31-102" v:mID="31" v:groupContext="shape" transform="translate(387.349,-67.0335)">
			<title>Sheet.31</title>
			<desc>Time</desc>
			<v:textBlock v:margins="rect(4,4,4,4)" v:tabSpace="42.5197"/>
			<v:textRect cx="31.1811" cy="240.366" width="62.37" height="14.1732"/>
			<rect x="0" y="233.28" width="62.3622" height="14.1732" class="st15"/>
			<text x="19.1" y="243.97" class="st6" v:langID="2057"><v:paragraph v:horizAlign="1"/><v:tabList/>Time</text>		</g>
	</g>
</svg>
