<?xml version="1.0" encoding="UTF-8" standalone="no"?>
<!DOCTYPE svg PUBLIC "-//W3C//DTD SVG 1.1//EN" "http://www.w3.org/Graphics/SVG/1.1/DTD/svg11.dtd">
<!-- Generated by Microsoft Visio, SVG Export side_channel_leakage_figure_2_duration.svg Page-1 -->
<svg xmlns="http://www.w3.org/2000/svg" xmlns:xlink="http://www.w3.org/1999/xlink" xmlns:ev="http://www.w3.org/2001/xml-events"
		xmlns:v="http://schemas.microsoft.com/visio/2003/SVGExtensions/" width="4.67639in" height="3.04315in"
		viewBox="0 0 336.7 219.106" xml:space="preserve" color-interpolation-filters="sRGB" class="st14">
	<v:documentProperties v:langID="1033" v:metric="true" v:viewMarkup="false"/>

	<style type="text/css">
	<![CDATA[
		.st1 {fill:#fff2cc;stroke:none;stroke-linecap:round;stroke-linejoin:round;stroke-width:0.75}
		.st2 {fill:#e5b9b5;stroke:none;stroke-linecap:round;stroke-linejoin:round;stroke-width:0.75}
		.st3 {fill:#ddd6e5;stroke:none;stroke-linecap:round;stroke-linejoin:round;stroke-width:0.75}
		.st4 {fill:#ddd6e5;stroke:#000000;stroke-linecap:round;stroke-linejoin:round;stroke-width:0.75}
		.st5 {fill:#000000;font-family:Calibri;font-size:1.00001em}
		.st6 {marker-end:url(#mrkr13-15);stroke:#000000;stroke-linecap:round;stroke-linejoin:round;stroke-width:0.75}
		.st7 {fill:#000000;fill-opacity:1;stroke:#000000;stroke-opacity:1;stroke-width:0.22935779816514}
		.st8 {fill:#fff2cc;stroke:#000000;stroke-linecap:round;stroke-linejoin:round;stroke-width:0.75}
		.st9 {fill:#e5b9b5;stroke:#000000;stroke-linecap:round;stroke-linejoin:round;stroke-width:0.75}
		.st10 {stroke:#000000;stroke-linecap:round;stroke-linejoin:round;stroke-width:0.75}
		.st11 {fill:none;stroke:none;stroke-linecap:round;stroke-linejoin:round;stroke-width:0.75}
		.st12 {font-size:1em}
		.st13 {marker-end:url(#mrkr13-15);marker-start:url(#mrkr13-66);stroke:#000000;stroke-linecap:round;stroke-linejoin:round;stroke-width:0.75}
		.st14 {fill:none;fill-rule:evenodd;font-size:12px;overflow:visible;stroke-linecap:square;stroke-miterlimit:3}
	]]>
	</style>

	<defs id="Markers">
		<g id="lend13">
			<path d="M 3 1 L 0 0 L 3 -1 L 3 1 " style="stroke:none"/>
		</g>
		<marker id="mrkr13-15" class="st7" v:arrowType="13" v:arrowSize="2" v:setback="13.08" refX="-13.08" orient="auto"
				markerUnits="strokeWidth" overflow="visible">
			<use xlink:href="#lend13" transform="scale(-4.36,-4.36) "/>
		</marker>
		<marker id="mrkr13-66" class="st7" v:arrowType="13" v:arrowSize="2" v:setback="12.6" refX="12.6" orient="auto"
				markerUnits="strokeWidth" overflow="visible">
			<use xlink:href="#lend13" transform="scale(4.36) "/>
		</marker>
	</defs>
	<g v:mID="0" v:index="1" v:groupContext="foregroundPage">
		<title>Page-1</title>
		<v:pageProperties v:drawingScale="0.0393701" v:pageScale="0.0393701" v:drawingUnits="24" v:shadowOffsetX="8.50394"
				v:shadowOffsetY="-8.50394"/>
		<g id="shape32-1" v:mID="32" v:groupContext="shape" transform="translate(212.973,-58.5296)">
			<title>Sheet.32</title>
			<rect x="0" y="149.374" width="70.8661" height="69.7323" class="st1"/>
		</g>
		<g id="shape33-3" v:mID="33" v:groupContext="shape" transform="translate(283.84,-60.2304)">
			<title>Sheet.33</title>
			<rect x="0" y="149.374" width="42.5197" height="69.7323" class="st2"/>
		</g>
		<g id="shape36-5" v:mID="36" v:groupContext="shape" transform="translate(156.281,-58.5296)">
			<title>Sheet.36</title>
			<rect x="0" y="149.374" width="56.6929" height="69.7323" class="st3"/>
		</g>
		<g id="shape38-7" v:mID="38" v:groupContext="shape" transform="translate(0.375,-152.073)">
			<title>Sheet.38</title>
			<desc>Process A</desc>
			<v:textBlock v:margins="rect(4,4,4,4)" v:tabSpace="42.5197"/>
			<v:textRect cx="28.3465" cy="204.933" width="56.7" height="28.3465"/>
			<rect x="0" y="190.76" width="56.6929" height="28.3465" class="st4"/>
			<text x="4.95" y="208.53" class="st5" v:langID="2057"><v:paragraph v:horizAlign="1"/><v:tabList/>Process A</text>		</g>
		<g id="shape39-10" v:mID="39" v:groupContext="shape" transform="translate(247.828,10.3406) rotate(90)">
			<title>Sheet.39</title>
			<path d="M0 219.11 L18.54 219.11" class="st6"/>
		</g>
		<g id="shape40-16" v:mID="40" v:groupContext="shape" transform="translate(247.828,67.0336) rotate(90)">
			<title>Sheet.40</title>
			<path d="M0 219.11 L18.54 219.11" class="st6"/>
		</g>
		<g id="shape42-21" v:mID="42" v:groupContext="shape" transform="translate(0.375,-95.38)">
			<title>Sheet.42</title>
			<desc>UDIV</desc>
			<v:textBlock v:margins="rect(4,4,4,4)" v:tabSpace="42.5197"/>
			<v:textRect cx="28.3465" cy="204.933" width="56.7" height="28.3465"/>
			<rect x="0" y="190.76" width="56.6929" height="28.3465" class="st8"/>
			<text x="15.89" y="208.53" class="st5" v:langID="2057"><v:paragraph v:horizAlign="1"/><v:tabList/>UDIV</text>		</g>
		<g id="shape44-24" v:mID="44" v:groupContext="shape" transform="translate(0.375,-38.6871)">
			<title>Sheet.44</title>
			<desc>Process C</desc>
			<v:textBlock v:margins="rect(4,4,4,4)" v:tabSpace="42.5197"/>
			<v:textRect cx="28.3465" cy="204.933" width="56.7" height="28.3465"/>
			<rect x="0" y="190.76" width="56.6929" height="28.3465" class="st9"/>
			<text x="5.22" y="208.53" class="st5" v:langID="2057"><v:paragraph v:horizAlign="1"/><v:tabList/>Process C</text>		</g>
		<g id="shape45-27" v:mID="45" v:groupContext="shape" transform="translate(247.828,123.726) rotate(90)">
			<title>Sheet.45</title>
			<path d="M0 219.11 L18.54 219.11" class="st6"/>
		</g>
		<g id="shape48-32" v:mID="48" v:groupContext="shape" transform="translate(247.828,180.419) rotate(90)">
			<title>Sheet.48</title>
			<path d="M0 219.11 L18.54 219.11" class="st6"/>
		</g>
		<g id="shape52-37" v:mID="52" v:groupContext="shape" transform="translate(212.973,-86.9596)">
			<title>Sheet.52</title>
			<path d="M0 211.82 C1.02 211.89 0.91 210.07 0.91 208.42 C0.94 202.3 2.61 198.44 3.96 199.07 C6 200.02 7.35 211.13 8.53
						 216.07 C9.6 220.51 10.52 219.96 11.58 216.07 C12.37 213.2 13.23 208.52 14.33 203.88 C14.88 201.54 15.5 199.2
						 16 199.06 C17.22 198.73 17.78 211.27 18.67 216.07 C20.01 223.28 22.1 213.01 24.39 206.15 C25.95 201.44 27.61
						 198.33 28.57 201.9 C29.33 204.69 29.67 211.56 30.48 215.22 C31.2 218.49 32.3 219.22 33.15 217.49 C34.41
						 214.9 35.1 206.8 36.96 203.32 C38.49 200.44 40.83 200.71 41.91 204.73 C42.73 207.76 42.83 212.92 43.82 215.22
						 C44.9 217.75 47.04 216.83 47.85 212.39 C48.44 209.16 48.33 204.08 48.77 201.9 C49.36 198.98 50.96 201.29
						 52.2 204.73 C53.85 209.31 54.86 215.89 55.47 215.22 C55.98 214.67 56.2 209.2 56.39 203.32 C56.62 196.08
						 56.8 188.24 57.3 183.47 C57.93 177.53 59.07 176.38 59.82 182.06 C60.37 186.26 60.72 194.21 60.96 201.05
						 C61.12 205.53 61.24 209.54 62.1 211.82 C62.98 214.12 64.62 214.66 65.53 212.39 C66.25 210.58 66.51 207.01
						 66.9 206.15 C67.64 204.54 68.88 212.32 70.87 211.82" class="st10"/>
		</g>
		<g id="shape53-40" v:mID="53" v:groupContext="shape" transform="translate(156.281,-70.522)">
			<title>Sheet.53</title>
			<path d="M0 195.38 C-1.53 190.9 1.67 178.18 3.52 175.54 C6.04 171.95 6.09 187.01 5.87 201.05 C5.74 209.06 5.52 216.74
						 5.86 218.63 C6.43 221.73 8.52 209.08 10.75 201.62 C13.48 192.52 16.41 191.13 17.59 203.88 C17.89 207.1 18.08
						 211.21 18.57 212.39 C19.51 214.62 21.54 206.42 23.07 199.63 C23.91 195.88 24.6 192.56 25.41 191.98 C26.93
						 190.91 28.9 199.27 30.3 203.89 C31.61 208.2 32.43 209.25 33.23 207.29 C34.42 204.4 35.58 194.99 38.12 186.31
						 C39.63 181.17 41.61 176.28 42.62 176.11 C44.33 175.81 43.19 189.14 44.96 197.65 C46.14 203.28 48.59 206.8
						 50.83 203.89 C53.52 200.38 55.9 187.58 56.69 195.38" class="st10"/>
		</g>
		<g id="shape54-43" v:mID="54" v:groupContext="shape" transform="translate(283.84,-73.677)">
			<title>Sheet.54</title>
			<path d="M0 198.54 C0.36 195.7 1.46 184.13 3.12 181.53 C4.17 179.88 5.44 181.83 6.38 184.37 C8.4 189.82 8.9 197.94 8.79
						 208.46 C8.75 212.45 8.62 216.78 8.79 218.38 C9.17 221.98 11.07 211.67 11.06 201.37 C11.05 196.8 10.67 192.24
						 11.06 191.45 C11.78 189.98 15.17 201.69 16.3 201.94 C16.96 202.08 16.84 198.24 17.29 197.12 C17.84 195.78
						 19.22 198.4 20.55 197.97 C22.23 197.43 23.82 192.03 25.23 191.45 C27.42 190.54 29.16 201.42 31.46 204.77
						 C34.34 208.96 38.12 201.41 42.52 198.54" class="st10"/>
		</g>
		<g id="shape56-46" v:mID="56" v:groupContext="shape" transform="translate(142.107,-166.246)">
			<title>Sheet.56</title>
			<desc>Power signature shows the number of cycles for the UDIV instr...</desc>
			<v:textBlock v:margins="rect(4,4,4,4)" v:tabSpace="42.5197"/>
			<v:textRect cx="92.126" cy="212.02" width="184.26" height="14.1732"/>
			<rect x="0" y="204.933" width="184.252" height="14.1732" class="st11"/>
			<text x="5.48" y="194.02" class="st5" v:langID="2057"><v:paragraph v:horizAlign="1"/><v:tabList/>Power signature shows the number <tspan
						x="5.26" dy="1.2em" class="st12">of cycles for the UDIV instruction to </tspan><tspan x="9.77" dy="1.2em"
						class="st12">execute, hence leaking hint about </tspan><tspan x="50.22" dy="1.2em" class="st12">input data range.</tspan></text>		</g>
		<g id="shape58-52" v:mID="58" v:groupContext="shape" transform="translate(156.281,-52.8603)">
			<title>Sheet.58</title>
			<path d="M0 219.11 L160.27 219.11" class="st6"/>
		</g>
		<g id="shape60-57" v:mID="60" v:groupContext="shape" transform="translate(207.304,-38.6871)">
			<title>Sheet.60</title>
			<desc>Time</desc>
			<v:textBlock v:margins="rect(4,4,4,4)" v:tabSpace="42.5197"/>
			<v:textRect cx="31.1811" cy="212.02" width="62.37" height="14.1732"/>
			<rect x="0" y="204.933" width="62.3622" height="14.1732" class="st11"/>
			<text x="19.1" y="215.62" class="st5" v:langID="2057"><v:paragraph v:horizAlign="1"/><v:tabList/>Time</text>		</g>
		<g id="shape61-60" v:mID="61" v:groupContext="shape" transform="translate(212.973,-137.9)">
			<title>Sheet.61</title>
			<path d="M9.45 219.11 L9.81 219.11 L61.06 219.11" class="st13"/>
		</g>
	</g>
</svg>
