<?xml version="1.0" encoding="UTF-8" standalone="no"?>
<!DOCTYPE svg PUBLIC "-//W3C//DTD SVG 1.1//EN" "http://www.w3.org/Graphics/SVG/1.1/DTD/svg11.dtd">
<!-- Generated by Microsoft Visio, SVG Export side_channel_leakage_figure_3_toggle.svg Page-1 -->
<svg xmlns="http://www.w3.org/2000/svg" xmlns:xlink="http://www.w3.org/1999/xlink" xmlns:ev="http://www.w3.org/2001/xml-events"
		xmlns:v="http://schemas.microsoft.com/visio/2003/SVGExtensions/" width="6.95924in" height="3.21969in"
		viewBox="0 0 501.065 231.818" xml:space="preserve" color-interpolation-filters="sRGB" class="st18">
	<v:documentProperties v:langID="1033" v:metric="true" v:viewMarkup="false"/>

	<style type="text/css">
	<![CDATA[
		.st1 {fill:#fff2cc;stroke:none;stroke-linecap:round;stroke-linejoin:round;stroke-width:0.75}
		.st2 {fill:#ffffff;stroke:#000000;stroke-linecap:round;stroke-linejoin:round;stroke-width:0.75}
		.st3 {marker-end:url(#mrkr13-12);stroke:#000000;stroke-linecap:round;stroke-linejoin:round;stroke-width:0.75}
		.st4 {fill:#000000;fill-opacity:1;stroke:#000000;stroke-opacity:1;stroke-width:0.22935779816514}
		.st5 {fill:#ddd6e5;stroke:#000000;stroke-linecap:round;stroke-linejoin:round;stroke-width:0.75}
		.st6 {fill:#000000;font-family:Calibri;font-size:1.00001em}
		.st7 {fill:#fff2cc;stroke:#000000;stroke-linecap:round;stroke-linejoin:round;stroke-width:0.75}
		.st8 {fill:none;stroke:none;stroke-linecap:round;stroke-linejoin:round;stroke-width:0.75}
		.st9 {fill:#ddd6e5;stroke:none;stroke-linecap:round;stroke-linejoin:round;stroke-width:0.75}
		.st10 {stroke:#000000;stroke-linecap:round;stroke-linejoin:round;stroke-width:0.75}
		.st11 {stroke:#000000;stroke-dasharray:5.25,3.75;stroke-linecap:round;stroke-linejoin:round;stroke-width:0.75}
		.st12 {font-size:1em}
		.st13 {marker-end:url(#mrkr5-88);stroke:#000000;stroke-linecap:round;stroke-linejoin:round;stroke-width:0.75}
		.st14 {stroke:#a5a5a5;stroke-linecap:round;stroke-linejoin:round;stroke-width:0.75}
		.st15 {marker-end:url(#mrkr13-122);stroke:#a5a5a5;stroke-linecap:round;stroke-linejoin:round;stroke-width:0.75}
		.st16 {fill:#a5a5a5;fill-opacity:1;stroke:#a5a5a5;stroke-opacity:1;stroke-width:0.22935779816514}
		.st17 {marker-end:url(#mrkr13-122);marker-start:url(#mrkr13-153);stroke:#a5a5a5;stroke-linecap:round;stroke-linejoin:round;stroke-width:0.75}
		.st18 {fill:none;fill-rule:evenodd;font-size:12px;overflow:visible;stroke-linecap:square;stroke-miterlimit:3}
	]]>
	</style>

	<defs id="Markers">
		<g id="lend13">
			<path d="M 3 1 L 0 0 L 3 -1 L 3 1 " style="stroke:none"/>
		</g>
		<marker id="mrkr13-12" class="st4" v:arrowType="13" v:arrowSize="2" v:setback="13.08" refX="-13.08" orient="auto"
				markerUnits="strokeWidth" overflow="visible">
			<use xlink:href="#lend13" transform="scale(-4.36,-4.36) "/>
		</marker>
		<g id="lend5">
			<path d="M 2 1 L 0 0 L 1.98117 -0.993387 C 1.67173 -0.364515 1.67301 0.372641 1.98465 1.00043 " style="stroke:none"/>
		</g>
		<marker id="mrkr5-88" class="st4" v:arrowType="5" v:arrowSize="2" v:setback="7.63" refX="-7.63" orient="auto"
				markerUnits="strokeWidth" overflow="visible">
			<use xlink:href="#lend5" transform="scale(-4.36,-4.36) "/>
		</marker>
		<marker id="mrkr13-122" class="st16" v:arrowType="13" v:arrowSize="2" v:setback="13.08" refX="-13.08" orient="auto"
				markerUnits="strokeWidth" overflow="visible">
			<use xlink:href="#lend13" transform="scale(-4.36,-4.36) "/>
		</marker>
		<marker id="mrkr13-153" class="st16" v:arrowType="13" v:arrowSize="2" v:setback="12.6" refX="12.6" orient="auto"
				markerUnits="strokeWidth" overflow="visible">
			<use xlink:href="#lend13" transform="scale(4.36) "/>
		</marker>
	</defs>
	<g v:mID="0" v:index="1" v:groupContext="foregroundPage">
		<title>Page-1</title>
		<v:pageProperties v:drawingScale="0.0393701" v:pageScale="0.0393701" v:drawingUnits="24" v:shadowOffsetX="8.50394"
				v:shadowOffsetY="-8.50394"/>
		<g id="shape1020-1" v:mID="1020" v:groupContext="shape" transform="translate(326.359,-95.38)">
			<title>Sheet.1020</title>
			<rect x="0" y="146.779" width="14.1732" height="85.0394" class="st1"/>
		</g>
		<g id="shape1017-3" v:mID="1017" v:groupContext="shape" transform="translate(212.973,-95.38)">
			<title>Sheet.1017</title>
			<rect x="0" y="146.779" width="14.1732" height="85.0394" class="st1"/>
		</g>
		<g id="shape1000-5" v:mID="1000" v:groupContext="shape" transform="translate(0.375,-38.6871)">
			<title>Sheet.1000</title>
			<path d="M28.35 203.47 L0 217.64 L28.35 231.82 L56.69 217.64 L28.35 203.47 Z" class="st2"/>
		</g>
		<g id="shape1001-7" v:mID="1001" v:groupContext="shape" transform="translate(260.539,23.0522) rotate(90)">
			<title>Sheet.1001</title>
			<path d="M0 231.82 L18.54 231.82" class="st3"/>
		</g>
		<g id="shape1002-13" v:mID="1002" v:groupContext="shape" transform="translate(0.375,-152.073)">
			<title>Sheet.1002</title>
			<desc>Process A</desc>
			<v:textBlock v:margins="rect(4,4,4,4)" v:tabSpace="42.5197"/>
			<v:textRect cx="28.3465" cy="217.645" width="56.7" height="28.3465"/>
			<rect x="0" y="203.472" width="56.6929" height="28.3465" class="st5"/>
			<text x="4.95" y="221.24" class="st6" v:langID="2057"><v:paragraph v:horizAlign="1"/><v:tabList/>Process A</text>		</g>
		<g id="shape1003-16" v:mID="1003" v:groupContext="shape" transform="translate(260.539,79.7451) rotate(90)">
			<title>Sheet.1003</title>
			<path d="M0 231.82 L18.54 231.82" class="st3"/>
		</g>
		<g id="shape1004-21" v:mID="1004" v:groupContext="shape" transform="translate(0.375,-95.38)">
			<title>Sheet.1004</title>
			<desc>X=X+1</desc>
			<v:textBlock v:margins="rect(4,4,4,4)" v:tabSpace="42.5197"/>
			<v:textRect cx="28.3465" cy="217.645" width="56.7" height="28.3465"/>
			<rect x="0" y="203.472" width="56.6929" height="28.3465" class="st7"/>
			<text x="13.1" y="221.24" class="st6" v:langID="2057"><v:paragraph v:horizAlign="1"/><v:tabList/>X=X+1</text>		</g>
		<g id="shape1005-24" v:mID="1005" v:groupContext="shape" transform="translate(260.539,136.438) rotate(90)">
			<title>Sheet.1005</title>
			<path d="M0 231.82 L18.54 231.82" class="st3"/>
		</g>
		<g id="shape1006-29" v:mID="1006" v:groupContext="shape" transform="translate(260.539,193.131) rotate(90)">
			<title>Sheet.1006</title>
			<path d="M0 231.82 L18.54 231.82" class="st3"/>
		</g>
		<g id="shape1007-34" v:mID="1007" v:groupContext="shape" transform="translate(57.0679,-52.8603)">
			<title>Sheet.1007</title>
			<path d="M0 231.82 L32.71 231.82" class="st3"/>
		</g>
		<g id="shape1008-39" v:mID="1008" v:groupContext="shape" transform="translate(28.7215,-52.8603)">
			<title>Sheet.1008</title>
			<path d="M70.87 231.82 L70.87 90.09 L9.81 90.09" class="st3"/>
		</g>
		<g id="shape1009-44" v:mID="1009" v:groupContext="shape" transform="translate(37.2254,-194.593)">
			<title>Sheet.1009</title>
			<desc>Loop</desc>
			<v:textBlock v:margins="rect(4,4,4,4)" v:tabSpace="42.5197"/>
			<v:textRect cx="31.1811" cy="224.731" width="62.37" height="14.1732"/>
			<rect x="0" y="217.645" width="62.3622" height="14.1732" class="st8"/>
			<text x="19.18" y="228.33" class="st6" v:langID="2057"><v:paragraph v:horizAlign="1"/><v:tabList/>Loop</text>		</g>
		<g id="shape1010-47" v:mID="1010" v:groupContext="shape" transform="translate(156.281,-95.38)">
			<title>Sheet.1010</title>
			<rect x="0" y="146.779" width="56.6929" height="85.0394" class="st9"/>
		</g>
		<g id="shape1011-49" v:mID="1011" v:groupContext="shape" transform="translate(156.281,-107.372)">
			<title>Sheet.1011</title>
			<path d="M0 208.09 C-1.53 203.61 1.67 190.89 3.52 188.25 C6.04 184.66 6.09 199.72 5.87 213.76 C5.74 221.77 5.52 229.45
						 5.86 231.34 C6.43 234.45 8.52 221.79 10.75 214.33 C13.48 205.23 16.41 203.84 17.59 216.59 C17.89 219.81
						 18.08 223.92 18.57 225.1 C19.51 227.33 21.54 219.14 23.07 212.35 C23.91 208.59 24.6 205.27 25.41 204.69
						 C26.93 203.62 28.9 211.98 30.3 216.6 C31.61 220.91 32.43 221.96 33.23 220 C34.42 217.11 35.58 207.7 38.12
						 199.02 C39.63 193.88 41.61 188.99 42.62 188.82 C44.33 188.52 43.19 201.85 44.96 210.36 C46.14 215.99 48.59
						 219.51 50.83 216.6 C53.52 213.09 55.9 200.29 56.69 208.09" class="st10"/>
		</g>
		<g id="shape1012-52" v:mID="1012" v:groupContext="shape" transform="translate(156.281,-81.2068)">
			<title>Sheet.1012</title>
			<path d="M0 231.82 L302 231.82" class="st3"/>
		</g>
		<g id="shape1013-57" v:mID="1013" v:groupContext="shape" transform="translate(295.178,-67.0335)">
			<title>Sheet.1013</title>
			<desc>Time</desc>
			<v:textBlock v:margins="rect(4,4,4,4)" v:tabSpace="42.5197"/>
			<v:textRect cx="31.1811" cy="224.731" width="62.37" height="14.1732"/>
			<rect x="0" y="217.645" width="62.3622" height="14.1732" class="st8"/>
			<text x="19.1" y="228.33" class="st6" v:langID="2057"><v:paragraph v:horizAlign="1"/><v:tabList/>Time</text>		</g>
		<g id="shape1014-60" v:mID="1014" v:groupContext="shape" transform="translate(212.973,-130.196)">
			<title>Sheet.1014</title>
			<path d="M0 230.92 C1.9 219.64 3.89 228.43 4.96 230.92 C5.57 232.33 5.88 231.71 6.8 231.48 C8.46 231.07 12.08 231.94
						 14.17 230.92" class="st10"/>
		</g>
		<g id="shape1015-63" v:mID="1015" v:groupContext="shape" transform="translate(326.359,-128.475)">
			<title>Sheet.1015</title>
			<path d="M0 229.2 C0.39 226.73 1.44 211.87 2.27 209.92 C3.16 207.82 3.78 220.82 5.1 226.93 C7.37 237.36 11.69 227.75
						 14.17 229.2" class="st10"/>
		</g>
		<g id="shape1018-66" v:mID="1018" v:groupContext="shape" transform="translate(227.147,-123.726)">
			<title>Sheet.1018</title>
			<path d="M0 231.82 L42.52 231.82" class="st11"/>
		</g>
		<g id="shape1019-69" v:mID="1019" v:groupContext="shape" transform="translate(181.792,-180.419)">
			<title>Sheet.1019</title>
			<desc>X toggled only 1-bit</desc>
			<v:textBlock v:margins="rect(4,4,4,4)" v:tabSpace="42.5197"/>
			<v:textRect cx="31.1811" cy="224.731" width="62.37" height="14.1732"/>
			<rect x="0" y="217.645" width="62.3622" height="14.1732" class="st8"/>
			<text x="8.37" y="221.13" class="st6" v:langID="2057"><v:paragraph v:horizAlign="1"/><v:tabList/>X toggled <tspan x="8"
						dy="1.2em" class="st12">only 1</tspan>-bit</text>		</g>
		<g id="shape1021-73" v:mID="1021" v:groupContext="shape" transform="translate(269.666,-95.38)">
			<title>Sheet.1021</title>
			<rect x="0" y="146.779" width="56.6929" height="85.0394" class="st9"/>
		</g>
		<g id="shape1022-75" v:mID="1022" v:groupContext="shape" transform="translate(269.666,-107.372)">
			<title>Sheet.1022</title>
			<path d="M0 208.09 C-1.53 203.61 1.67 190.89 3.52 188.25 C6.04 184.66 6.09 199.72 5.87 213.76 C5.74 221.77 5.52 229.45
						 5.86 231.34 C6.43 234.45 8.52 221.79 10.75 214.33 C13.48 205.23 16.41 203.84 17.59 216.59 C17.89 219.81
						 18.08 223.92 18.57 225.1 C19.51 227.33 21.54 219.14 23.07 212.35 C23.91 208.59 24.6 205.27 25.41 204.69
						 C26.93 203.62 28.9 211.98 30.3 216.6 C31.61 220.91 32.43 221.96 33.23 220 C34.42 217.11 35.58 207.7 38.12
						 199.02 C39.63 193.88 41.61 188.99 42.62 188.82 C44.33 188.52 43.19 201.85 44.96 210.36 C46.14 215.99 48.59
						 219.51 50.83 216.6 C53.52 213.09 55.9 200.29 56.69 208.09" class="st10"/>
		</g>
		<g id="shape1023-78" v:mID="1023" v:groupContext="shape" transform="translate(283.84,-187.506)">
			<title>Sheet.1023</title>
			<desc>X toggle 5-bit, e.g. could be 0x0F to 0x10</desc>
			<v:textBlock v:margins="rect(4,4,4,4)" v:tabSpace="42.5197"/>
			<v:textRect cx="46.7717" cy="217.645" width="93.55" height="28.3465"/>
			<rect x="0" y="203.472" width="93.5433" height="28.3465" class="st8"/>
			<text x="12.85" y="206.84" class="st6" v:langID="2057"><v:paragraph v:horizAlign="1"/><v:tabList/>X toggle 5-bit, <tspan
						x="15.7" dy="1.2em" class="st12">e.g. could be </tspan><tspan x="15.73" dy="1.2em" class="st12">0x0F to 0x10</tspan></text>		</g>
		<g id="shape1024-83" v:mID="1024" v:groupContext="shape" transform="translate(563.693,42.9745) rotate(87.9174)">
			<title>Sheet.1024</title>
			<path d="M0 231.82 L8.46 231.82" class="st13"/>
		</g>
		<g id="shape1025-89" v:mID="1025" v:groupContext="shape" transform="translate(345.944,-123.726)">
			<title>Sheet.1025</title>
			<path d="M0 231.82 L42.52 231.82" class="st11"/>
		</g>
		<g id="shape1026-92" v:mID="1026" v:groupContext="shape" transform="translate(446.832,-95.38)">
			<title>Sheet.1026</title>
			<rect x="0" y="146.779" width="14.1732" height="85.0394" class="st1"/>
		</g>
		<g id="shape1028-94" v:mID="1028" v:groupContext="shape" transform="translate(390.139,-95.38)">
			<title>Sheet.1028</title>
			<rect x="0" y="146.779" width="56.6929" height="85.0394" class="st9"/>
		</g>
		<g id="shape1029-96" v:mID="1029" v:groupContext="shape" transform="translate(390.139,-107.372)">
			<title>Sheet.1029</title>
			<path d="M0 208.09 C-1.53 203.61 1.67 190.89 3.52 188.25 C6.04 184.66 6.09 199.72 5.87 213.76 C5.74 221.77 5.52 229.45
						 5.86 231.34 C6.43 234.45 8.52 221.79 10.75 214.33 C13.48 205.23 16.41 203.84 17.59 216.59 C17.89 219.81
						 18.08 223.92 18.57 225.1 C19.51 227.33 21.54 219.14 23.07 212.35 C23.91 208.59 24.6 205.27 25.41 204.69
						 C26.93 203.62 28.9 211.98 30.3 216.6 C31.61 220.91 32.43 221.96 33.23 220 C34.42 217.11 35.58 207.7 38.12
						 199.02 C39.63 193.88 41.61 188.99 42.62 188.82 C44.33 188.52 43.19 201.85 44.96 210.36 C46.14 215.99 48.59
						 219.51 50.83 216.6 C53.52 213.09 55.9 200.29 56.69 208.09" class="st10"/>
		</g>
		<g id="shape1030-99" v:mID="1030" v:groupContext="shape" transform="translate(685.736,28.7215) rotate(90)">
			<title>Sheet.1030</title>
			<path d="M0 231.82 L5.1 231.82" class="st13"/>
		</g>
		<g id="shape1016-104" v:mID="1016" v:groupContext="shape" transform="translate(446.832,-129.759)">
			<title>Sheet.1016</title>
			<path d="M0 230.48 C0.37 229.92 0.36 228.9 0.35 227.89 C0.35 221.65 0.76 215.73 1.35 211.05 C1.81 207.33 2.38 204.4 2.76
						 199.53 C3.01 196.46 3.17 192.62 3.47 191.32 C3.65 190.56 3.87 190.67 4.07 191.32 C4.63 193.08 5.09 198.76
						 5.39 203.85 C5.75 210.1 5.87 215.45 5.95 221.12 C5.99 223.77 6.03 226.49 6.31 228.32 C7.42 235.65 12.47
						 228.94 14.17 230.48" class="st10"/>
		</g>
		<g id="shape1031-107" v:mID="1031" v:groupContext="shape" transform="translate(390.139,-203.097)">
			<title>Sheet.1031</title>
			<desc>X could be changed 0xFF to 0x100</desc>
			<v:textBlock v:margins="rect(4,4,4,4)" v:tabSpace="42.5197"/>
			<v:textRect cx="55.2756" cy="217.645" width="110.56" height="28.3465"/>
			<rect x="0" y="203.472" width="110.551" height="28.3465" class="st8"/>
			<text x="7.89" y="214.04" class="st6" v:langID="2057"><v:paragraph v:horizAlign="1"/><v:tabList/>X could be changed <tspan
						x="21.47" dy="1.2em" class="st12">0xFF to 0x100</tspan></text>		</g>
		<g id="shape1032-111" v:mID="1032" v:groupContext="shape" transform="translate(212.973,-137.9)">
			<title>Sheet.1032</title>
			<path d="M0 231.82 L11.85 231.82" class="st14"/>
		</g>
		<g id="shape1033-114" v:mID="1033" v:groupContext="shape" transform="translate(212.973,-132.23)">
			<title>Sheet.1033</title>
			<path d="M0 231.82 L11.85 231.82" class="st14"/>
		</g>
		<g id="shape1034-117" v:mID="1034" v:groupContext="shape" transform="translate(450.461,79.7451) rotate(90)">
			<title>Sheet.1034</title>
			<path d="M0 231.82 L4.36 231.82" class="st15"/>
		</g>
		<g id="shape1035-123" v:mID="1035" v:groupContext="shape" transform="translate(-13.1753,113.761) rotate(-90)">
			<title>Sheet.1035</title>
			<path d="M0 231.82 L4.36 231.82" class="st15"/>
		</g>
		<g id="shape1037-128" v:mID="1037" v:groupContext="shape" transform="translate(326.359,-152.073)">
			<title>Sheet.1037</title>
			<path d="M0 231.82 L11.85 231.82" class="st14"/>
		</g>
		<g id="shape1039-131" v:mID="1039" v:groupContext="shape" transform="translate(564.362,65.5719) rotate(90)">
			<title>Sheet.1039</title>
			<path d="M0 231.82 L4.36 231.82" class="st15"/>
		</g>
		<g id="shape1040-136" v:mID="1040" v:groupContext="shape" transform="translate(100.726,116.595) rotate(-90)">
			<title>Sheet.1040</title>
			<path d="M0 231.82 L4.36 231.82" class="st15"/>
		</g>
		<g id="shape1041-141" v:mID="1041" v:groupContext="shape" transform="translate(326.875,-129.396)">
			<title>Sheet.1041</title>
			<path d="M0 231.82 L11.85 231.82" class="st14"/>
		</g>
		<g id="shape1042-144" v:mID="1042" v:groupContext="shape" transform="translate(445.414,-171.915)">
			<title>Sheet.1042</title>
			<path d="M0 231.82 L11.85 231.82" class="st14"/>
		</g>
		<g id="shape1044-147" v:mID="1044" v:groupContext="shape" transform="translate(225.45,102.422) rotate(-90)">
			<title>Sheet.1044</title>
			<path d="M9.45 231.82 L9.81 231.82 L32.71 231.82" class="st17"/>
		</g>
		<g id="shape1045-155" v:mID="1045" v:groupContext="shape" transform="translate(446.832,-131.097)">
			<title>Sheet.1045</title>
			<path d="M0 231.82 L11.85 231.82" class="st14"/>
		</g>
	</g>
</svg>
